# xmcd
#
# Track frame offsets:
#	150
#	14338
#	24454
#	41983
#	51302
#	65617
#	75730
#	90046
#	104819
#	119714
#	135036
#	150256
#	162198
#	174099
#	187638
#	200583
#	213091
#	226799
#	237626
#	251656
#	267881
#	285157
#
# Disc length: 4013 seconds
#
# Revision: 1
# Processed by: cddbd v1.5.1PL2 Copyright (c) Steve Scherf et al.
# Submitted via: audiograbber 1.83.01
#
DISCID=190fab16
DTITLE=Reader's Digest Folk and Country Jamboree - Campfire Singalong 1/3
DYEAR=1900
DGENRE=Country
TTITLE0=Casey Jones
TTITLE1=The Wreck Of The Old 97
TTITLE2=Midnight Special
TTITLE3=RockIsland Line
TTITLE4=Goodnight Irene
TTITLE5=Honeycomb
TTITLE6=Frankie And Johnny
TTITLE7=On Top Of Old Smoky
TTITLE8=Tom Dooley
TTITLE9=Puff [The Magic Dragon]
TTITLE10=The Unicorn
TTITLE11=The LionSleeps Tonight
TTITLE12=Jamaica Farewell
TTITLE13=Banana Boat (Day-O)
TTITLE14=LemonTree
TTITLE15=Walk Right ln
TTITLE16=If 1Had A Hammer
TTITLE17=This Land Is Your Land
TTITLE18=Where Have All The...
TTITLE19=The limes They Are A-Changin'
TTITLE20=Blowin' ln The Wind
TTITLE21=Leaving On A Jet Plane
EXTD=
EXTT0=
EXTT1=
EXTT2=
EXTT3=
EXTT4=
EXTT5=
EXTT6=
EXTT7=
EXTT8=
EXTT9=
EXTT10=
EXTT11=
EXTT12=
EXTT13=
EXTT14=
EXTT15=
EXTT16=
EXTT17=
EXTT18=
EXTT19=
EXTT20=
EXTT21=
PLAYORDER=
